<?xml version="1.0" encoding="UTF-8" standalone="no"?>
<!DOCTYPE svg PUBLIC "-//W3C//DTD SVG 1.1//EN" "http://www.w3.org/Graphics/SVG/1.1/DTD/svg11.dtd">
<svg width="100%" height="100%" viewBox="0 0 640 640" version="1.1" xmlns="http://www.w3.org/2000/svg" xmlns:xlink="http://www.w3.org/1999/xlink" xml:space="preserve" xmlns:serif="http://www.serif.com/" style="fill-rule:evenodd;clip-rule:evenodd;stroke-linejoin:round;stroke-miterlimit:1.41421;">
    <g id="Artboard1" transform="matrix(1.6,0,0,1.6,0,0)">
        <rect x="0" y="0" width="400" height="400" style="fill:none;"/>
        <clipPath id="_clip1">
            <rect x="0" y="0" width="400" height="400"/>
        </clipPath>
        <g clip-path="url(#_clip1)">
            <g transform="matrix(0.5625,0,0,0.5625,-112.5,87.5)">
                <path d="M168.573,31.427C185.93,14.07 214.07,14.07 231.427,31.427C268.887,68.887 331.113,131.113 368.573,168.573C385.93,185.93 385.93,214.07 368.573,231.427C331.113,268.887 268.887,331.113 231.427,368.573C214.07,385.93 185.93,385.93 168.573,368.573C131.113,331.113 68.887,268.887 31.427,231.427C14.07,214.07 14.07,185.93 31.427,168.573C68.887,131.113 131.113,68.887 168.573,31.427Z" style="fill-opacity:0.02;"/>
            </g>
            <g transform="matrix(0.5625,0,0,0.5625,287.5,-112.5)">
                <path d="M168.573,31.427C185.93,14.07 214.07,14.07 231.427,31.427C268.887,68.887 331.113,131.113 368.573,168.573C385.93,185.93 385.93,214.07 368.573,231.427C331.113,268.887 268.887,331.113 231.427,368.573C214.07,385.93 185.93,385.93 168.573,368.573C131.113,331.113 68.887,268.887 31.427,231.427C14.07,214.07 14.07,185.93 31.427,168.573C68.887,131.113 131.113,68.887 168.573,31.427Z" style="fill-opacity:0.02;"/>
            </g>
            <g transform="matrix(0.5625,0,0,0.5625,287.5,287.5)">
                <path d="M168.573,31.427C185.93,14.07 214.07,14.07 231.427,31.427C268.887,68.887 331.113,131.113 368.573,168.573C385.93,185.93 385.93,214.07 368.573,231.427C331.113,268.887 268.887,331.113 231.427,368.573C214.07,385.93 185.93,385.93 168.573,368.573C131.113,331.113 68.887,268.887 31.427,231.427C14.07,214.07 14.07,185.93 31.427,168.573C68.887,131.113 131.113,68.887 168.573,31.427Z" style="fill-opacity:0.02;"/>
            </g>
        </g>
    </g>
</svg>
