<svg viewBox="0 0 424 127" xmlns="http://www.w3.org/2000/svg" xmlns:xlink="http://www.w3.org/1999/xlink">
    <g id="fleximple">
        <path id="feximple-letter-f" d="M22.846,4.292L22.846,1.815C22.846,1.145 22.398,0.698 21.728,0.698L1.117,0.698C0.447,0.698 -0,1.145 -0,1.815L-0,59.192C-0,59.863 0.447,60.31 1.117,60.31L3.966,60.31C4.637,60.31 5.083,59.863 5.083,59.192L5.083,32.859L18.374,32.859C19.045,32.859 19.492,32.413 19.492,31.743L19.492,29.266C19.492,28.595 19.045,28.149 18.374,28.149L5.083,28.149L5.083,5.409L21.728,5.409C22.398,5.409 22.846,4.962 22.846,4.292Z"  fill="#2a2a35"/>
        <path id="feximple-letter-l-1" d="M32.41,55.6L32.41,1.816C32.41,1.145 31.963,0.698 31.293,0.698L28.443,0.698C27.773,0.698 27.327,1.145 27.327,1.816L27.327,59.193C27.327,59.864 27.773,60.31 28.443,60.31L47.564,60.31C48.235,60.31 48.682,59.864 48.682,59.193L48.682,56.716C48.682,56.046 48.235,55.6 47.564,55.6L32.41,55.6Z"  fill="#2a2a35"/>
        <path id="feximple-letter-e-1" d="M76.008,4.292L76.008,1.815C76.008,1.145 75.561,0.698 74.89,0.698L54.28,0.698C53.609,0.698 53.163,1.145 53.163,1.815L53.163,59.193C53.163,59.864 53.609,60.31 54.28,60.31L74.89,60.31C75.561,60.31 76.008,59.864 76.008,59.193L76.008,56.716C76.008,56.046 75.561,55.6 74.89,55.6L58.246,55.6L58.246,32.859L71.537,32.859C72.207,32.859 72.655,32.413 72.655,31.743L72.655,29.266C72.655,28.595 72.207,28.149 71.537,28.149L58.246,28.149L58.246,5.409L74.89,5.409C75.561,5.409 76.008,4.962 76.008,4.292Z"  fill="#2a2a35"/>
        <path id="feximple-letter-x" d="M90.199,30.504L80.436,1.964C80.212,1.219 80.51,0.698 81.33,0.698L84.112,0.698C84.709,0.698 85.156,0.921 85.379,1.592L93.038,25.989L100.607,1.592C100.831,0.921 101.278,0.698 101.874,0.698L104.731,0.698C105.551,0.698 105.849,1.219 105.625,1.964L95.937,30.504L105.625,59.043C105.849,59.789 105.551,60.31 104.731,60.31L101.874,60.31C101.278,60.31 100.831,60.087 100.607,59.416L93.038,35.019L85.379,59.416C85.156,60.087 84.709,60.31 84.112,60.31L81.33,60.31C80.51,60.31 80.212,59.789 80.436,59.043L90.199,30.504Z"  fill="#2a2a35"/>
        <path id="feximple-letter-i" d="M115.012,0.698L112.162,0.698C111.492,0.698 111.045,1.145 111.045,1.815L111.045,59.193C111.045,59.863 111.492,60.31 112.162,60.31L115.012,60.31C115.682,60.31 116.129,59.863 116.129,59.193L116.129,1.815C116.129,1.145 115.682,0.698 115.012,0.698Z"  fill="#2a2a35"/>
        <path id="feximple-letter-m" d="M140.338,48.399L128.278,1.666C128.129,0.996 127.681,0.698 127.01,0.698L122.72,0.698C122.05,0.698 121.603,1.145 121.603,1.815L121.603,59.193C121.603,59.863 122.05,60.31 122.72,60.31L125.197,60.31C125.867,60.31 126.314,59.863 126.314,59.193L126.314,14.293L138.018,59.342C138.167,59.938 138.54,60.31 139.211,60.31L141.498,60.31C142.169,60.31 142.542,59.938 142.691,59.342L154.395,14.293L154.395,59.193C154.395,59.863 154.842,60.31 155.512,60.31L157.989,60.31C158.659,60.31 159.106,59.863 159.106,59.193L159.106,1.815C159.106,1.145 158.659,0.698 157.989,0.698L153.699,0.698C153.028,0.698 152.58,0.996 152.431,1.666L140.338,48.399Z"  fill="#2a2a35"/>
        <path id="feximple-letter-p" d="M182.218,0.698L165.697,0.698C165.027,0.698 164.581,1.145 164.581,1.815L164.581,59.192C164.581,59.863 165.027,60.31 165.697,60.31L168.547,60.31C169.217,60.31 169.664,59.863 169.664,59.192L169.664,37.704L182.218,37.704C188.473,37.704 191.898,34.279 191.898,28.025L191.898,10.377C191.898,4.123 188.473,0.698 182.218,0.698ZM182.467,5.409C183.62,5.409 184.726,5.867 185.541,6.682C186.356,7.497 186.815,8.603 186.815,9.756C186.815,14.92 186.815,23.482 186.815,28.646C186.815,29.799 186.356,30.904 185.541,31.72C184.726,32.535 183.62,32.993 182.467,32.993C177.386,32.993 169.664,32.993 169.664,32.993L169.664,5.409L182.467,5.409Z"  fill="#2a2a35"/>
        <path id="feximple-letter-l-2" d="M202.207,55.6L202.207,1.816C202.207,1.145 201.761,0.698 201.091,0.698L198.241,0.698C197.571,0.698 197.124,1.145 197.124,1.816L197.124,59.193C197.124,59.864 197.571,60.31 198.241,60.31L217.361,60.31C218.032,60.31 218.479,59.864 218.479,59.193L218.479,56.716C218.479,56.046 218.032,55.6 217.361,55.6L202.207,55.6Z"  fill="#2a2a35"/>
        <path id="feximple-letter-e-2" d="M245.806,4.292L245.806,1.815C245.806,1.145 245.359,0.698 244.688,0.698L224.077,0.698C223.407,0.698 222.96,1.145 222.96,1.815L222.96,59.193C222.96,59.864 223.407,60.31 224.077,60.31L244.688,60.31C245.359,60.31 245.806,59.864 245.806,59.193L245.806,56.716C245.806,56.046 245.359,55.6 244.688,55.6L228.044,55.6L228.044,32.859L241.334,32.859C242.005,32.859 242.452,32.413 242.452,31.743L242.452,29.266C242.452,28.595 242.005,28.149 241.334,28.149L228.044,28.149L228.044,5.409L244.688,5.409C245.359,5.409 245.806,4.962 245.806,4.292Z"  fill="#2a2a35"/>
    </g>
    <g id="child">
        <path id="child-letter-c" d="M259.966,60.683L270.409,60.683C276.663,60.683 280.088,57.258 280.088,51.004L280.088,41.313C280.088,40.642 279.641,40.195 278.971,40.195L271.153,40.195C270.483,40.195 270.036,40.642 270.036,41.313L270.036,48.767C270.036,50.184 269.216,51.004 267.798,51.004L262.577,51.004C261.159,51.004 260.339,50.184 260.339,48.767L260.339,12.241C260.339,10.824 261.159,10.004 262.577,10.004L267.798,10.004C269.216,10.004 270.036,10.824 270.036,12.241L270.036,19.695C270.036,20.366 270.483,20.813 271.153,20.813L278.971,20.813C279.641,20.813 280.088,20.366 280.088,19.695L280.088,10.004C280.088,3.75 276.663,0.325 270.409,0.325L259.966,0.325C253.712,0.325 250.287,3.75 250.287,10.004L250.287,51.004C250.287,57.258 253.712,60.683 259.966,60.683Z"  fill="#2a2a35"/>
        <path id="child-letter-h" d="M305.809,1.816L305.809,25.664L296.112,25.664L296.112,1.816C296.112,1.145 295.665,0.698 294.995,0.698L287.177,0.698C286.506,0.698 286.06,1.145 286.06,1.816L286.06,59.192C286.06,59.863 286.506,60.31 287.177,60.31L294.995,60.31C295.665,60.31 296.112,59.863 296.112,59.192L296.112,35.344L305.809,35.344L305.809,59.192C305.809,59.863 306.256,60.31 306.926,60.31L314.744,60.31C315.414,60.31 315.861,59.863 315.861,59.192L315.861,1.816C315.861,1.145 315.414,0.698 314.744,0.698L306.926,0.698C306.256,0.698 305.809,1.145 305.809,1.816Z"  fill="#2a2a35"/>
        <path id="child-letter-i" d="M331.513,0.698L323.695,0.698C323.025,0.698 322.578,1.145 322.578,1.815L322.578,59.192C322.578,59.863 323.025,60.31 323.695,60.31L331.513,60.31C332.183,60.31 332.63,59.863 332.63,59.192L332.63,1.815C332.63,1.145 332.183,0.698 331.513,0.698Z"  fill="#2a2a35"/>
        <path id="child-letter-l" d="M349.398,50.631L349.398,1.816C349.398,1.145 348.952,0.698 348.281,0.698L340.463,0.698C339.793,0.698 339.347,1.145 339.347,1.816L339.347,59.193C339.347,59.863 339.793,60.31 340.463,60.31L362.068,60.31C362.739,60.31 363.186,59.863 363.186,59.193L363.186,51.748C363.186,51.078 362.739,50.631 362.068,50.631L349.398,50.631Z"  fill="#2a2a35"/>
        <path id="child-letter-d" d="M387.044,0.698L368.038,0.698C367.368,0.698 366.922,1.145 366.922,1.815L366.922,59.193C366.922,59.863 367.368,60.31 368.038,60.31L387.044,60.31C393.298,60.31 396.723,56.885 396.723,50.631L396.723,10.377C396.723,4.123 393.298,0.698 387.044,0.698ZM386.671,48.395C386.671,49.811 385.851,50.631 384.433,50.631L376.973,50.631L376.973,10.377L384.433,10.377C385.851,10.377 386.671,11.197 386.671,12.613L386.671,48.395Z"  fill="#2a2a35"/>
    </g>
    <g id="theme">
        <path id="theme-letter-t" d="M277.554,67.062L251.405,67.062C250.734,67.062 250.287,67.509 250.287,68.179L250.287,75.625C250.287,76.295 250.734,76.742 251.405,76.742L259.454,76.742L259.454,125.557C259.454,126.228 259.9,126.675 260.57,126.675L268.388,126.675C269.059,126.675 269.505,126.228 269.505,125.557L269.505,76.742L277.554,76.742C278.225,76.742 278.672,76.295 278.672,75.625L278.672,68.179C278.672,67.509 278.225,67.062 277.554,67.062Z"  fill="#2a2a35"/>
        <path id="theme-letter-h" d="M302.903,68.18L302.903,92.029L293.205,92.029L293.205,68.18C293.205,67.51 292.758,67.062 292.088,67.062L284.27,67.062C283.6,67.062 283.153,67.51 283.153,68.18L283.153,125.557C283.153,126.228 283.6,126.675 284.27,126.675L292.088,126.675C292.758,126.675 293.205,126.228 293.205,125.557L293.205,101.708L302.903,101.708L302.903,125.557C302.903,126.228 303.35,126.675 304.02,126.675L311.838,126.675C312.508,126.675 312.955,126.228 312.955,125.557L312.955,68.18C312.955,67.51 312.508,67.062 311.838,67.062L304.02,67.062C303.35,67.062 302.903,67.51 302.903,68.18Z"  fill="#2a2a35"/>
        <path id="theme-letter-e-1" d="M345.001,75.625L345.001,68.179C345.001,67.509 344.554,67.062 343.883,67.062L320.788,67.062C320.118,67.062 319.671,67.509 319.671,68.179L319.671,125.558C319.671,126.228 320.118,126.675 320.788,126.675L343.883,126.675C344.554,126.675 345.001,126.228 345.001,125.558L345.001,118.112C345.001,117.442 344.554,116.996 343.883,116.996L329.723,116.996L329.723,101.708L340.53,101.708C341.2,101.708 341.648,101.262 341.648,100.591L341.648,93.146C341.648,92.476 341.2,92.029 340.53,92.029L329.723,92.029L329.723,76.742L343.883,76.742C344.554,76.742 345.001,76.295 345.001,75.625Z"  fill="#2a2a35"/>
        <path id="theme-letter-m" d="M379.068,68.031L370.718,107.524L362.367,68.031C362.218,67.36 361.771,67.062 361.1,67.062L350.599,67.062C349.929,67.062 349.482,67.509 349.482,68.18L349.482,125.557C349.482,126.228 349.929,126.675 350.599,126.675L358.045,126.675C358.715,126.675 359.161,126.228 359.161,125.557L359.161,91.354L367.139,125.706C367.288,126.302 367.661,126.675 368.332,126.675L373.104,126.675C373.775,126.675 374.147,126.302 374.296,125.706L382.274,91.354L382.274,125.557C382.274,126.228 382.721,126.675 383.391,126.675L390.837,126.675C391.507,126.675 391.953,126.228 391.953,125.557L391.953,68.18C391.953,67.509 391.507,67.062 390.837,67.062L380.336,67.062C379.665,67.062 379.217,67.36 379.068,68.031Z"  fill="#2a2a35"/>
        <path id="theme-letter-e-2" d="M424,75.625L424,68.179C424,67.509 423.553,67.062 422.882,67.062L399.787,67.062C399.117,67.062 398.67,67.509 398.67,68.179L398.67,125.558C398.67,126.228 399.117,126.675 399.787,126.675L422.882,126.675C423.553,126.675 424,126.228 424,125.558L424,118.112C424,117.442 423.553,116.996 422.882,116.996L408.722,116.996L408.722,101.708L419.528,101.708C420.199,101.708 420.646,101.262 420.646,100.591L420.646,93.146C420.646,92.476 420.199,92.029 419.528,92.029L408.722,92.029L408.722,76.742L422.882,76.742C423.553,76.742 424,76.295 424,75.625Z"  fill="#2a2a35"/>
    </g>
</svg>
